<?xml version="1.0" encoding="UTF-8"?>
<svg id="Layer_1" data-name="Layer 1" xmlns="http://www.w3.org/2000/svg" viewBox="0 0 500 500">
  <defs>
    <style>
      .cls-1 {
        fill: #7c7c7c;
      }

      .cls-2 {
        fill: #e5e5e5;
      }

      .cls-3 {
        opacity: .5;
      }
    </style>
  </defs>
  <g class="cls-3">
    <path class="cls-2" d="M250,479.84c-61.39,0-119.11-23.91-162.52-67.32-43.41-43.41-67.32-101.13-67.32-162.52s23.91-119.11,67.32-162.52C130.89,44.07,188.61,20.16,250,20.16s119.11,23.91,162.52,67.32c43.41,43.41,67.32,101.13,67.32,162.52s-23.91,119.11-67.32,162.52-101.13,67.32-162.52,67.32Z"/>
    <path class="cls-1" d="M250,20.66c30.96,0,61,6.06,89.27,18.02,27.31,11.55,51.84,28.09,72.9,49.15,21.06,21.06,37.6,45.59,49.15,72.9,11.96,28.27,18.02,58.31,18.02,89.27s-6.06,61-18.02,89.27c-11.55,27.31-28.09,51.84-49.15,72.9-21.06,21.06-45.59,37.6-72.9,49.15-28.27,11.96-58.31,18.02-89.27,18.02s-61-6.06-89.27-18.02c-27.31-11.55-51.84-28.09-72.9-49.15-21.06-21.06-37.6-45.59-49.15-72.9-11.96-28.27-18.02-58.31-18.02-89.27s6.06-61,18.02-89.27c11.55-27.31,28.09-51.84,49.15-72.9,21.06-21.06,45.59-37.6,72.9-49.15,28.27-11.96,58.31-18.02,89.27-18.02M250,19.66C122.79,19.66,19.66,122.79,19.66,250s103.13,230.34,230.34,230.34,230.34-103.13,230.34-230.34S377.21,19.66,250,19.66h0Z"/>
  </g>
</svg>