<?xml version="1.0" encoding="UTF-8"?>
<svg id="Layer_1" data-name="Layer 1" xmlns="http://www.w3.org/2000/svg" viewBox="0 0 500 500">
  <defs>
    <style>
      .cls-1 {
        fill: #fff;
        font-family: MyriadPro-Regular, 'Myriad Pro';
        font-size: 63.11px;
      }

      .cls-2 {
        fill: #282828;
      }

      .cls-3 {
        letter-spacing: 0em;
      }

      .cls-4 {
        fill: #d30f00;
      }

      .cls-5 {
        letter-spacing: .02em;
      }

      .cls-6 {
        opacity: .5;
      }
    </style>
  </defs>
  <g class="cls-6">
    <path class="cls-4" d="M250,367.36c-64.71,0-117.36-52.65-117.36-117.36s52.65-117.36,117.36-117.36,117.36,52.65,117.36,117.36-52.65,117.36-117.36,117.36Z"/>
    <path class="cls-2" d="M250,133.14c31.21,0,60.56,12.16,82.63,34.23,22.07,22.07,34.23,51.42,34.23,82.63s-12.16,60.56-34.23,82.63-51.42,34.23-82.63,34.23-60.56-12.16-82.63-34.23c-22.07-22.07-34.23-51.42-34.23-82.63s12.16-60.56,34.23-82.63c22.07-22.07,51.42-34.23,82.63-34.23M250,132.14c-65.09,0-117.86,52.77-117.86,117.86s52.77,117.86,117.86,117.86,117.86-52.77,117.86-117.86-52.77-117.86-117.86-117.86h0Z"/>
  </g>
  <text class="cls-1" transform="translate(151.33 268.52)"><tspan x="0" y="0">DEL</tspan><tspan class="cls-5" x="102.86" y="0">E</tspan><tspan class="cls-3" x="134.92" y="0">TE</tspan></text>
</svg>