<?xml version="1.0" encoding="UTF-8"?>
<svg id="Layer_1" data-name="Layer 1" xmlns="http://www.w3.org/2000/svg" viewBox="0 0 500 500">
  <defs>
    <style>
      .cls-1 {
        font-family: MyriadPro-Regular, 'Myriad Pro';
        font-size: 70.4px;
      }

      .cls-2 {
        fill: #282828;
      }

      .cls-3 {
        fill: #cecccc;
      }

      .cls-4 {
        opacity: .5;
      }
    </style>
  </defs>
  <g class="cls-4">
    <path class="cls-3" d="M95.13,91.91c41.61-40.77,96.59-63.21,154.87-63.21s113.26,22.44,154.87,63.21l-70.03,70.03c-22.9-22.08-53.01-34.23-84.84-34.23s-61.94,12.15-84.84,34.23l-70.03-70.03Z"/>
    <path class="cls-2" d="M250,29.2c57.98,0,112.68,22.26,154.16,62.72l-69.32,69.32c-22.95-21.95-53.04-34.03-84.84-34.03s-61.89,12.08-84.84,34.03l-69.32-69.32c41.48-40.45,96.18-62.72,154.16-62.72M250,28.2c-60.61,0-115.54,24.31-155.58,63.71l70.73,70.73c21.93-21.31,51.86-34.43,84.85-34.43s62.92,13.12,84.85,34.43l70.73-70.73c-40.04-39.4-94.97-63.71-155.58-63.71h0Z"/>
  </g>
  <text class="cls-1" transform="translate(173.89 125.21) rotate(-22.06)"><tspan x="0" y="0">O</tspan></text>
  <text class="cls-1" transform="translate(216.1 108.48) rotate(-6.07)"><tspan x="0" y="0">P</tspan></text>
  <text class="cls-1" transform="translate(250.79 104.65) rotate(7.15)"><tspan x="0" y="0">E</tspan></text>
  <text class="cls-1" transform="translate(282.59 107.5) rotate(22.23)"><tspan x="0" y="0">N</tspan></text>
</svg>