<?xml version="1.0" encoding="UTF-8"?>
<svg id="Layer_1" data-name="Layer 1" xmlns="http://www.w3.org/2000/svg" viewBox="0 0 500 500">
  <defs>
    <style>
      .cls-1 {
        font-family: MyriadPro-Regular, 'Myriad Pro';
        font-size: 70.4px;
      }

      .cls-2 {
        fill: #282828;
      }

      .cls-3 {
        fill: #cecccc;
      }

      .cls-4 {
        opacity: .5;
      }
    </style>
  </defs>
  <g class="cls-4">
    <path class="cls-3" d="M91.91,404.87c-40.77-41.61-63.21-96.59-63.21-154.87s22.44-113.26,63.21-154.87l70.03,70.03c-22.08,22.9-34.23,53.01-34.23,84.84s12.15,61.95,34.23,84.84l-70.03,70.03Z"/>
    <path class="cls-2" d="M91.92,95.84l69.32,69.32c-21.95,22.95-34.03,53.04-34.03,84.84s12.08,61.89,34.03,84.84l-69.32,69.32c-40.45-41.48-62.72-96.18-62.72-154.16s22.26-112.68,62.72-154.16M91.91,94.42c-39.4,40.04-63.71,94.97-63.71,155.58s24.31,115.54,63.71,155.58l70.73-70.73c-21.31-21.93-34.43-51.86-34.43-84.85s13.12-62.92,34.43-84.85l-70.73-70.73h0Z"/>
  </g>
  <text class="cls-1" transform="translate(128.14 328.98) rotate(-120.21)"><tspan x="0" y="0">R</tspan></text>
  <text class="cls-1" transform="translate(110.16 298.36) rotate(-106.47)"><tspan x="0" y="0">e</tspan></text>
  <text class="cls-1" transform="translate(100.96 266.71) rotate(-94.8)"><tspan x="0" y="0">s</tspan></text>
  <text class="cls-1" transform="translate(99.05 240.57) rotate(-86.67)"><tspan x="0" y="0">i</tspan></text>
  <text class="cls-1" transform="translate(99.27 225.78) rotate(-78.01)"><tspan x="0" y="0">z</tspan></text>
  <text class="cls-1" transform="translate(104.4 198.91) rotate(-66)"><tspan x="0" y="0">e</tspan></text>
</svg>